<?xml version="1.0" encoding="UTF-8"?><svg id="Layer_1" xmlns="http://www.w3.org/2000/svg" viewBox="0 0 648 162.07"><defs><style>.cls-1{fill:#ed1c24;}.cls-2{fill:#fff;}.cls-3{fill:#00b398;}</style></defs><path class="cls-2" d="M32.75,21.48c.18.29.41.67.74,1.21.86,1.42,2.18,6.76,3.9,8.53.91-.62,2.5-1.42,3.39-1.74-.21-.35-1.17-1.99-2.24-3.39-2.06-2.73-3.53-4.19-3.7-4.42-.56,0-1.5.02-2.09-.18Z"/><path class="cls-2" d="M48.18,28.6c.41-2.8-.52-7.44-1.07-8.6-.7-.18-1.42-.42-2.01-.71-.08.36-.6,2.25-.78,5.04-.09,1.49-.05,3.77.22,4.27.88-.09,2.37-.12,3.64,0Z"/><path class="cls-2" d="M61.49,45.07c0-8.41-6.59-15-15-15s-15,6.72-15,15c0,.4.09,1.2.22,2.01,4.32-1,10.04-.84,12.58,1.17,4.12-2.35,10.05-2.49,14.39.04.86-.43,1.76-.74,2.67-1,.11-.81.15-1.66.15-2.22ZM43.2,39.95c-.05.96-.87,1.7-1.83,1.66-.96-.05-1.7-.87-1.65-1.83l.02-.19c-.15-.23-.93-.48-2.1.22-.59.36-1.24.11-.23-.77,1.08-.94,2.11-1.48,3.01-1.6h.03c1.52-.11,3.5.2,4.43.58.38.16-.01,2.04-.1,2.02-.31-.07-1-.36-1.58-.23v.14ZM48.21,45.18c-.31.89-3.46,1.17-4.04.02-.23-.46-.55-1.65-.12-1.4.7.41,3.24.12,3.72,0,.42-.11.15-.7.41-.63.31.09.31,1.17.03,2.01ZM55.62,40.25c-.79-.65-1.83-.94-2.23-.65v.13c.1.96-.61,1.81-1.57,1.89-.96.08-1.81-.63-1.89-1.59v-.07c-.63-.2-1.63.15-1.76.09-.08-.04-.5-1.81.05-2.04,1.51-.61,6.36-.91,7.77,1.81.17.33.06.77-.36.42Z"/><path class="cls-2" d="M56.54,21.32c-1.76,1.49-4.46,5.11-4.8,8.01.83.33,3.01,1.38,3.31,1.62,2.17-2.14,1.73-4.5,2.58-6.32.37-.79.72-1.41.93-1.76-.7-.38-1.46-.93-2.01-1.55Z"/><path class="cls-2" d="M67.06,27.05c-.39.21-1.31.78-1.61,1.01-2.08,1.57-6.6,3.68-7.64,4.83.83.74,2.05,2.05,2.61,3.16.51.02,1.96-1.16,4.85-4.56.93-1.09,1.91-1.66,3.7-2.65-.74-.53-1.37-1.14-1.91-1.78Z"/><path class="cls-2" d="M30.68,39.61c-.98-.96-2.92-1.79-5.44-1.59-5.17.41-8.57.07-10.52-.2-3.34-.48-5.42-.01-7.09-.01-5.08,0,.14.46.74.69,2.39.94,7.22,2.14,11.01,1.86,1.85-.13,4.96,1,5.49,1.18,1.36.49,3.83,1.28,5.17,1.26.07-.61.39-2.42.65-3.19Z"/><path class="cls-2" d="M34.84,33.26c-2.6-2.1-4.99-2.54-8.8-4.33-.86-.41-2.31-1.38-2.39-1.42-.1-.07-.29-.19-.53-.34-.22.71-.68,1.68-1.1,2.22.59.77,4.85,5.63,10.3,7.14.6-1.04,1.56-2.25,2.51-3.28Z"/><path class="cls-2" d="M89.46,37.02c-.26-.04-1.23-.17-1.85-.17-.82,0-6.21.03-7.68.26-3.01.47-8.84.23-12.04.11-2.39-.09-5.14.84-5.98,1.29,0,0,.92,2.3.98,3.86,1.02.18,1.99-1.1,4.89-1.05,3.02.05,10.45-.35,14.22-1.82,2.81-1.09,5.17-1.63,7.08-2.02.64-.13,1.65-.26.38-.45Z"/><path class="cls-2" d="M22.13,21.98c.24-.2.57-.18.88-.08,2.55.82,6.2.26,7.91-2.43.24-.38.71-.51,1.12-.34,1.76.71,5.37,1.04,9.76-3.42.33-.34.86-.29,1.23,0,3.86,3.1,7.88,3.29,11.96.58.25-.17.57-.39.86-.27.28.11.49.36.55.66,1.3,6.02,7.59,5.49,9.48,5.18.24-.04.49.02.69.17.2.15.33.37.36.61.21,1.41,1.77,4.14,4.47,5.54,2.31,1.19,4.83,1.1,7.49-.27.27-.14.59-.14.85,0,3.41,1.82,6.48,1.93,8.42.3,1.37-1.15,1.92-3.03,1.38-4.67-.61-1.83-2.43-2.97-4.99-3.12-.43-.03-.79-.35-.85-.78-.23-1.46-1.05-2.66-2.36-3.46-2.01-1.22-4.96-1.37-7.9-.39-.26.08-.54.05-.77-.09s-.39-.38-.43-.65c-.16-1.13-.65-2.66-2.06-3.52-1.49-.91-3.74-.89-6.51.06-.43.15-.9-.04-1.11-.44-1.78-3.41-4.28-5.63-7.24-6.41-2.64-.7-5.58-.19-8.06,1.4-.32.21-.74.19-1.05-.04-2.49-1.87-5.48-2.47-8.19-1.64-2.64.81-4.65,2.87-5.66,5.8-.08.24-.26.43-.49.54-.23.11-.49.11-.73.02-4.04-1.62-7.34-1.58-9.55.12-1.89,1.46-2.48,3.77-2.39,4.44.06.46-.22.89-.67,1l-.97.23c-2.24.51-4.56,1.04-5.26,4.61-.08.4-.41.7-.81.74-3.9.39-6.44,1.83-6.98,3.96-.38,1.5.32,3.2,1.69,4.13,1.39.94,3.05.84,4.58-.27.25-.18.58-.23.87-.11,2.29.87,6,.7,8.25-1.1,1.63-1.31,2.27-3.24,1.9-5.73-.05-.32.07-.63.32-.84ZM83.84,22.24c2.31-.54,5.09,1.15,4.3,4.26-.13.53-1.44.56-1.39.02.2-2.6-1.09-2.81-2.8-2.79-.65.02-.6-1.38-.11-1.49ZM73.95,17.62c2.25-1.28,6.85-1.05,8.28,3.05.25.7-.68,1.88-1.26.83-1.73-3.18-4.52-3.17-6.85-2.28-.52.21-.99-1.12-.17-1.59ZM64.28,12.9c2.09-.74,5.64-1.07,6.59,2.42.27.97-.93,1.44-1.19.76-.97-2.52-2.79-2.42-4.97-1.73-1,.33-.76-1.33-.43-1.45ZM47.24,8.97c1.5-2.45,9.37-4.72,13.4,2.2.43.75-.14,1.19-.6,1.5-.32.23-.51-.29-.72-.63-3.42-5.42-9.62-3.99-11.28-1.48-.34.51-1.24-.87-.8-1.59ZM34.57,9.36c1.38-2.19,6.12-5.56,10.32-1.85.47.41-.09,1.93-.62,1.58-3.84-2.64-6.86-.52-8.46,1.39-.77.91-1.57-.59-1.24-1.12ZM11.89,24.67c-1.61,0-2.9.03-4.03,1.26-1.21,1.31-.92,2.03-1.14,2.27-.33.32-1.16-.25-1.14-.9.07-3.08,3.79-4.28,6-4.04.84.1,1.06,1.41.31,1.41ZM18.43,19.5c-2.35.26-3.04,1.41-3.46,2.72-.17.49-1.49.14-1.28-.83.62-2.9,3.76-3.6,4.9-3.36.38.07.27,1.43-.17,1.47ZM20.44,16.38c.48-2.56,2.98-6.28,8.69-4.83.7.18.29,1.96-.47,1.66-4.17-1.63-6.26,1.53-6.93,4.02-.09.34-1.49.21-1.29-.85Z"/><path class="cls-2" d="M8.86,47.78c-2.76-.06-5.07.72-5.88,2.14-1.49,2.61.26,4.86,1.31,5.49,2.4,1.44,4.69.5,4.86-.39-.66-.74-1.79-2.41-2.42-2.43-.92-.02-.85-1.22-.18-1.44,1.6-.53,3.17,2.52,5.47,4.16,2.05,1.47,4.94.39,4.94-.21-1.26-1.14-2.76-7.21-8.1-7.33Z"/><path class="cls-2" d="M63.84,54.96c1.91,1.94,4.52,1.11,4.64.47-.21-.39-1.42-2.16-2.13-2.55-.58-.32-.95-.85-.64-1.29.52-.74,1.56-.21,2.23.59.67.82,2.51,3.21,3.15,3.58,1.68.93,5.37.59,5.07-.48-1.02-1.62-1.73-4.89-4.77-6.32-3.16-1.49-7.21-1.1-10.96.24.67,1.34,2.43,4.77,3.41,5.76Z"/><path class="cls-2" d="M41.65,48.86c-3.16-1.49-7.63-.99-11.39.34,1.04,1.39,2.77,4.63,3.66,5.72,1.73,2.1,4.68,1.04,4.8.41-.21-.39-1.79-2.44-2.39-2.78-.56-.32-.88-.83-.57-1.27.52-.74,1.76,0,2.42.81.67.81,2.54,3.16,3.16,3.58,1.85,1.25,5.37.6,5.07-.48-1.21-1.6-1.74-4.89-4.77-6.32Z"/><path class="cls-2" d="M17.95,73.06c-2.25.07-4.45.95-5.74.73v15.05s.81.62,3.07-.02c2.92-.83,4.22.08,4.22.08v-15.18s-.34-.69-1.55-.65Z"/><path class="cls-2" d="M26.01,135.99c2.25.64,3.07.02,3.07.02v-15.05c-1.29.22-3.49-.66-5.74-.73-1.21-.04-1.55.65-1.55.65v15.18s1.3-.91,4.22-.07Z"/><path class="cls-2" d="M75,73.06c-1.21-.04-1.55.65-1.55.65v15.18s1.3-.91,4.22-.08c2.25.64,3.07.02,3.07.02v-15.05c-1.29.23-3.49-.66-5.74-.73Z"/><path class="cls-2" d="M23.34,73.06c-1.21-.04-1.55.65-1.55.65v15.18s1.3-.91,4.22-.08c2.25.64,3.07.02,3.07.02v-15.05c-1.29.23-3.49-.66-5.74-.73Z"/><path class="cls-2" d="M19.5,136.07v-15.18s-.34-.69-1.55-.65c-2.25.07-4.45.96-5.74.73v15.05s.81.62,3.06-.02c2.92-.83,4.22.07,4.22.07Z"/><path class="cls-2" d="M73.74,120.89v15.18s1.3-.91,4.22-.07c2.26.64,3.07.02,3.07.02v-15.05c-1.29.22-3.49-.66-5.73-.73-1.21-.04-1.55.65-1.55.65Z"/><path class="cls-2" d="M69.62,73.06c-2.25.07-4.45.95-5.74.73v15.05s.82.62,3.07-.02c2.91-.83,4.21.08,4.21.08v-15.18s-.34-.69-1.55-.65Z"/><path class="cls-2" d="M64.16,120.97v15.05s.81.62,3.06-.02c2.92-.83,4.22.07,4.22.07v-15.18s-.34-.69-1.55-.65c-2.25.07-4.45.96-5.73.73Z"/><path class="cls-2" d="M90.46,66.38h-36.09v32.73h36.09v-32.73ZM85.07,92.42h-10.34v1.3h-4.29v-1.3h-10.34v-17.47h2.2v-3.18c2.24.54,5.9-.69,7.54-.69,1.82,0,2.75.79,2.75.79,0,0,.94-.79,2.74-.79,1.63,0,5.29,1.22,7.54.69v3.18h2.2v17.47Z"/><path class="cls-2" d="M38.62,66.38H2.51v32.73h36.11v-32.73ZM33.13,92.42h-10.34v1.3h-4.29v-1.3h-10.34v-17.47h2.21v-3.18c2.24.54,5.9-.69,7.54-.69,1.82,0,2.75.79,2.75.79,0,0,.94-.79,2.74-.79,1.63,0,5.29,1.22,7.53.69v3.18h2.21v17.47Z"/><path class="cls-2" d="M54.37,157.61c9.1-2.63,18.11-6.15,24.22-11.73,2.16-1.97,3.95-4.04,5.46-6.29h-9.31v1.3h-4.29v-1.3h-10.35v-17.48h2.21v-3.18c2.24.54,5.9-.69,7.53-.69,1.82,0,2.74.79,2.74.79,0,0,.94-.79,2.74-.79,1.64,0,5.29,1.22,7.54.69v3.18h2.21v15.81c3.32-5.75,4.9-12.78,5.44-22.67l-.06-1.47h-36.09v43.84Z"/><path class="cls-2" d="M8.16,137.74v-15.63h2.21v-3.18c2.24.54,5.9-.69,7.53-.69,1.82,0,2.75.79,2.75.79,0,0,.94-.79,2.74-.79,1.63,0,5.29,1.22,7.53.69v3.18h2.21v17.48h-10.34v1.3h-4.28v-1.3h-9.21c1.47,2.23,3.21,4.3,5.26,6.22,5.75,5.39,14.78,9.05,24.07,11.77v-43.81H2.51l.08,1.39c.36,9.04,2.06,16.42,5.57,22.58Z"/><path d="M94.47,36.08c-.54-.4-6.3-1.11-7.19-1.11s-5.84.04-7.76.34c-2.98.44-8.07.44-11.94,0-1.4-.16-2.95.18-4.21.59.25-.21.52-.45.84-.78,1.14-1.17,2.42-3.4,4.69-4.51.57-.28,1.11-.57,1.63-.86,1.9.95,4.9,1.6,8.63-.16,5.56,2.78,8.88.9,10.05-.09,1.44-1.21,2.24-3,2.24-4.79,0-.63-.1-1.26-.3-1.86-.8-2.42-3.01-3.93-6.04-4.28-.17-.65-.45-1.24-.78-1.81.35-.45.69-.87.9-1.13.26-.33,1.18-1.85-1.27-.58-.13.06-.36.19-.66.36-.34-.34-.72-.65-1.15-.91-2.28-1.39-5.37-1.56-8.54-.71-.45-1.69-1.28-3.12-2.62-3.94-1.4-.86-3.16-1.1-5.24-.79.13-.3.25-.57.35-.79.92-1.93.43-2.42-.54-1.56-1.09.97-1.78,1.66-2.31,2.22-1.96-3.15-4.55-5.28-7.61-6.09-2.65-.7-5.52-.33-8.1.92-.15-1.3-.32-2.37-.51-2.98-.48-1.57-1.06-.34-1.15.15-.11.65-.26,1.55-.43,2.6-2.58-1.38-5.45-1.76-8.13-.94-2.95.9-5.19,3.1-6.49,6.15-1.07-.38-2.04-.61-2.95-.77-.54-.71-1.34-1.61-2.46-2.58-.75-.67-1.37-.32-.92,1,.18.51.33.96.47,1.39-2.1.12-3.64.81-4.67,1.6-2.04,1.58-2.87,3.83-3.04,5.27-.12.03-.28.07-.28.07-1.71.39-4.02,1.04-5.47,3.32-.26-.16-.44-.27-.52-.32-4.32-2.87-2.33.82-.66,2.45-5.74.81-7.36,3.57-7.77,5.21-.11.42-.16.84-.16,1.27,0,1.86.97,3.73,2.6,4.83,1.92,1.3,4.25,1.22,6.32-.1,2.7.87,6.52.73,9.26-1.26,1.58,1.7,2.86,2.91,3.55,3.6,1.72,1.71,4.24,3.02,5.54,3.5-1.28-.49-3.4-1.03-5.53-.73-4.59.64-7.63-.19-9.6-.39-3.24-.32-6.56.24-8.22.24-1.76,0-4.23.83-5.44,1-1.31.2-1.22,1.06.6,1.54,1.8.49,5.17.79,6.09,1.18,2.93,1.27,7.83,2.33,11.28,2.06,2.45-.19,4.92,1.01,5.55,1.2,1.22.37,4.23,1.2,5.47,1.17,0-.07,0,1.74.13,2.6-.47.16-.92.32-1.32.5-1.37-.83-7.39-3.28-14.73-.24-1.55-.54-4.83-2.35-9.32-.87C-.91,48.27-.01,53.35,1.81,55.68c2.47,3.15,7.05,2.51,8.39.93,2.98,1.98,6.02,1.31,8.23-.06,1.45.85,8.58,2.27,14.01.06.74.55,3.72,2.11,7.54.18,2.21,1.31,5.85,1.41,7.73-.24.68.58,2.72,1.4,7.05,1.35,5.21-.06,6.42-.84,7.15-1.47,1.12.52,4.05,2.05,7.67.51,1.95,1.23,5.86,1.16,7.95-.22,3.83,1.74,10.85.95,12.61-.26,3.14-2.18,1.62-6.62-1.84-8.73-6.81-3.43-13.14-.77-14.82.09-2-1.35-6.2-2.22-10.55-1.41.07-.52,0-1.11,0-1.77,0-.07-.01-.14-.01-.21.86-.26,2.09-1.19,4.59-1.35,3.4-.23,11.42-.12,15.43-2.18,2.29-1.17,10.25-2.73,11.31-3.35,1.1-.63.81-1.09.25-1.48ZM65.27,31.48c-2.89,3.4-4.35,4.59-4.85,4.56-.55-1.1-1.78-2.42-2.61-3.16,1.04-1.15,5.56-3.26,7.64-4.83.31-.23,1.22-.79,1.61-1.01.54.64,1.17,1.25,1.91,1.78-1.79.99-2.77,1.57-3.7,2.65ZM23.63,24.1c2.43.38,5.26-.18,7.31-2.03,2.52,4.03,2.59,7.68,5.03,10.2-3.08-2.98-5.76-2.92-10.16-5.29-.76-.41-1.89-1.15-2.21-1.31,0,0-.01,0-.02-.01.05-.37.08-.76.08-1.17,0-.12-.02-.26-.03-.38ZM42.38,28.61l.06.14s-1.34-2.01-1.5-2.27c-.46-.7-1.06-1.41-1.72-2.23-1.05-1.27-1.97-2.3-2.68-3.07,1.76-.43,3.76-1.43,5.92-3.47.23.17.46.29.69.44-.12.69-.23,1.32-.31,1.77-.5,2.72-.53,4.81-.57,5.7-.04.85.05,2.19.11,2.98ZM38.53,26.09c1.07,1.4,2.03,3.04,2.24,3.39-.9.32-2.48,1.12-3.39,1.74-1.71-1.77-3.04-7.11-3.9-8.53-.33-.54-.56-.92-.74-1.21.59.21,1.53.18,2.09.18.17.24,1.64,1.69,3.7,4.42ZM46.49,30.06c8.42,0,15,6.59,15,15,0,.56-.04,1.41-.15,2.22-.91.26-1.81.57-2.67,1-4.34-2.53-10.27-2.38-14.39-.04-2.54-2.02-8.27-2.18-12.58-1.17-.13-.81-.22-1.62-.22-2.01,0-8.29,6.72-15,15-15ZM44.33,24.33c.17-2.79.7-4.68.78-5.04.59.28,1.31.53,2.01.71.55,1.16,1.48,5.8,1.07,8.6-1.27-.12-2.75-.09-3.64,0-.28-.5-.31-2.77-.22-4.27ZM57.62,24.63c-.85,1.82-.41,4.18-2.58,6.32-.3-.25-2.49-1.29-3.31-1.62.34-2.9,3.04-6.52,4.8-8.01.55.63,1.31,1.17,2.01,1.55-.21.35-.56.97-.93,1.76ZM59.92,24.05c.07-.12.15-.28.24-.45,1.62.54,3.39.68,5.13.49.18.57.45,1.18.8,1.79,0,0-.02.01-.03.01-.86.41-3.47,2.19-7.28,4.32-.99.55-1.59,1.07-1.94,1.43.42-.56.93-1.31,1.26-2.14.67-1.72.49-3.1,1.84-5.46ZM50.69,26.25c-.41,1.05-.57,1.6-.73,2.19.32-2.25-.29-5.54-.94-8.38,1.96.04,3.95-.47,5.92-1.59.15.44.36.83.56,1.22-1.11,1.01-3.77,3.93-4.8,6.56ZM19.91,28.55c-2.25,1.8-5.96,1.98-8.25,1.1-.29-.11-.62-.07-.87.11-1.53,1.11-3.2,1.21-4.58.27-1.38-.93-2.07-2.63-1.69-4.13.54-2.13,3.08-3.57,6.98-3.96.4-.04.73-.34.81-.74.7-3.57,3.02-4.1,5.26-4.61l.97-.23c.46-.11.74-.54.67-1-.08-.67.5-2.98,2.39-4.44,2.2-1.7,5.5-1.74,9.55-.12.23.09.5.09.73-.02.23-.1.4-.3.49-.54,1.01-2.93,3.02-4.99,5.66-5.8,2.71-.83,5.69-.23,8.19,1.64.31.23.73.25,1.05.04,2.48-1.59,5.42-2.1,8.06-1.4,2.95.78,5.45,3,7.24,6.41.21.4.68.59,1.11.44,2.77-.95,5.02-.98,6.51-.06,1.41.86,1.9,2.39,2.06,3.52.04.27.19.51.43.65s.52.18.77.09c2.94-.98,5.89-.84,7.9.39,1.32.8,2.13,2,2.36,3.46.07.43.42.75.85.78,2.57.16,4.39,1.29,4.99,3.12.54,1.64-.01,3.52-1.38,4.67-1.94,1.63-5.01,1.53-8.42-.3-.27-.14-.59-.14-.85,0-2.66,1.37-5.18,1.46-7.49.27-2.71-1.39-4.27-4.13-4.47-5.54-.03-.25-.17-.46-.36-.61-.2-.15-.45-.2-.69-.17-1.89.31-8.18.84-9.48-5.18-.06-.3-.27-.54-.55-.66-.28-.11-.6.1-.86.27-4.08,2.71-8.1,2.52-11.96-.58-.37-.3-.9-.34-1.23,0-4.39,4.46-8,4.13-9.76,3.42-.41-.17-.88-.03-1.12.34-1.7,2.7-5.36,3.26-7.91,2.43-.3-.1-.63-.12-.88.08-.24.2-.36.52-.32.84.37,2.49-.27,4.42-1.9,5.73ZM22.03,29.39c.42-.54.87-1.51,1.1-2.22.23.14.42.26.53.34.07.04,1.52,1.02,2.39,1.42,3.81,1.79,6.2,2.24,8.8,4.33-.95,1.03-1.91,2.23-2.51,3.28-5.45-1.51-9.71-6.37-10.3-7.14ZM24.86,41.54c-.53-.18-3.64-1.31-5.49-1.18-3.8.28-8.62-.92-11.01-1.86-.6-.23-5.82-.69-.74-.69,1.67,0,3.75-.47,7.09.01,1.95.28,5.36.61,10.52.2,2.53-.2,4.47.63,5.44,1.59-.26.76-.58,2.58-.65,3.19-1.33.02-3.8-.77-5.17-1.26ZM12.03,55.32c-2.31-1.65-3.87-4.69-5.47-4.16-.67.22-.75,1.41.18,1.44.63.01,1.77,1.69,2.42,2.43-.17.89-2.46,1.83-4.86.39-1.05-.63-2.81-2.88-1.31-5.49.81-1.42,3.11-2.2,5.88-2.14,5.35.12,6.85,6.2,8.1,7.33,0,.6-2.88,1.68-4.94.21ZM19.79,55.24c-2.02-.9-3.62-5.54-4.21-6.14-.24-.24,3.57-1.62,7.44-1.28,6.59.56,6.61,4.65,8.23,6.7.59.74-5.34,2.45-11.46.73ZM41.36,55.65c-.62-.42-2.49-2.76-3.16-3.58-.67-.81-1.9-1.54-2.42-.81-.31.44.01.95.57,1.27.6.34,2.18,2.39,2.39,2.78-.12.63-3.08,1.7-4.8-.41-.89-1.09-2.62-4.33-3.66-5.72,3.76-1.33,8.22-1.83,11.39-.34,3.04,1.43,3.56,4.72,4.77,6.32.3,1.07-3.23,1.73-5.07.48ZM49.63,55.57c-2.01-.9-3.62-5.55-4.21-6.14-.24-.24,3.57-1.61,7.44-1.28,6.59.56,6.61,4.65,8.23,6.69.59.75-5.34,2.45-11.46.73ZM82.59,47.93c6.59.56,8.16,4.9,7.5,6.3-.58,1.24-4.61,2.84-10.73,1.12-2.02-.9-3.62-5.55-4.21-6.14-.24-.24,3.57-1.61,7.44-1.28ZM71.4,48.97c3.04,1.43,3.75,4.7,4.77,6.32.3,1.08-3.39,1.41-5.07.48-.65-.37-2.49-2.76-3.15-3.58-.67-.81-1.71-1.33-2.23-.59-.31.44.06.97.64,1.29.71.39,1.92,2.16,2.13,2.55-.12.63-2.73,1.46-4.64-.47-.98-.98-2.73-4.41-3.41-5.76,3.75-1.34,7.8-1.73,10.96-.24ZM89.08,37.47c-1.91.39-4.27.93-7.08,2.02-3.76,1.46-11.19,1.87-14.22,1.82-2.9-.05-3.88,1.24-4.89,1.05-.06-1.56-.98-3.86-.98-3.86.84-.45,3.59-1.38,5.98-1.29,3.2.12,9.03.36,12.04-.11,1.47-.23,6.86-.25,7.68-.26.62,0,1.59.13,1.85.17,1.27.2.26.32-.38.45Z"/><path d="M11.89,24.67c-1.61,0-2.9.03-4.03,1.26-1.21,1.31-.92,2.03-1.14,2.27-.33.32-1.16-.25-1.14-.9.07-3.08,3.79-4.28,6-4.04.84.1,1.06,1.41.31,1.41"/><path d="M18.43,19.5c-2.35.26-3.04,1.41-3.46,2.72-.17.49-1.49.14-1.28-.83.62-2.9,3.76-3.6,4.9-3.36.38.07.27,1.43-.17,1.47"/><path d="M28.67,13.2c-4.17-1.63-6.26,1.53-6.93,4.02-.09.34-1.49.21-1.29-.85.48-2.56,2.98-6.28,8.69-4.83.7.18.29,1.96-.47,1.66"/><path d="M44.27,9.09c-3.84-2.64-6.86-.52-8.46,1.39-.77.91-1.57-.59-1.24-1.12,1.38-2.19,6.12-5.56,10.32-1.85.47.41-.09,1.93-.62,1.58"/><path d="M60.04,12.67c-.32.23-.51-.29-.72-.63-3.42-5.42-9.62-3.99-11.28-1.48-.34.51-1.24-.87-.8-1.59,1.5-2.45,9.37-4.72,13.4,2.2.43.75-.14,1.19-.6,1.5"/><path d="M69.68,16.07c-.97-2.52-2.79-2.42-4.97-1.73-1,.33-.76-1.33-.43-1.45,2.09-.74,5.64-1.07,6.59,2.42.27.97-.93,1.44-1.19.76"/><path d="M80.97,21.5c-1.73-3.18-4.52-3.17-6.85-2.28-.52.21-.99-1.12-.17-1.59,2.25-1.28,6.85-1.05,8.28,3.05.25.7-.68,1.88-1.26.83"/><path d="M88.14,26.5c-.13.53-1.44.56-1.39.02.2-2.6-1.09-2.81-2.8-2.79-.65.02-.6-1.38-.11-1.49,2.31-.54,5.09,1.15,4.3,4.26"/><path d="M43.2,39.95c-.05.96-.87,1.7-1.83,1.66-.96-.05-1.7-.87-1.65-1.83l.02-.19c-.15-.23-.93-.48-2.1.22-.59.36-1.24.11-.23-.77,1.08-.94,2.11-1.48,3.01-1.6h.03c1.52-.11,3.5.2,4.43.58.38.16-.01,2.04-.1,2.02-.31-.07-1-.36-1.58-.23v.14"/><path d="M48.21,45.18c-.31.89-3.46,1.17-4.04.02-.23-.46-.55-1.65-.12-1.4.7.41,3.24.12,3.72,0,.42-.11.15-.7.41-.63.31.09.31,1.17.03,2.01"/><path d="M55.62,40.25c-.79-.65-1.83-.94-2.23-.65v.13c.1.96-.61,1.81-1.57,1.89-.96.08-1.81-.63-1.89-1.59v-.07c-.63-.2-1.63.15-1.76.09-.08-.04-.5-1.81.05-2.04,1.51-.61,6.36-.91,7.77,1.81.17.33.06.77-.36.42"/><path d="M54.37,66.38h36.09v32.73h-36.09v-32.73ZM2.51,66.38h36.11v32.73H2.51v-32.73ZM38.62,157.58c-9.29-2.72-18.31-6.38-24.07-11.77-2.05-1.92-3.79-3.99-5.26-6.22h9.21v1.3h4.28v-1.3h10.34v-17.48h-2.21v-3.18c-2.24.53-5.9-.69-7.53-.69-1.8,0-2.74.79-2.74.79,0,0-.93-.79-2.75-.79-1.63,0-5.29,1.23-7.53.69v3.18h-2.21v15.63c-3.52-6.16-5.21-13.54-5.57-22.58l-.08-1.39h36.11v43.81ZM12.22,136.01v-15.05c1.29.22,3.49-.66,5.74-.73,1.21-.04,1.55.65,1.55.65v15.18s-1.3-.91-4.22-.07c-2.25.64-3.06.02-3.06.02ZM21.79,136.07v-15.18s.34-.69,1.55-.65c2.25.07,4.45.96,5.74.73v15.05s-.82.62-3.07-.02c-2.92-.83-4.22.07-4.22.07ZM52.48,158.18l-5.98,1.52-5.99-1.55v-46.4H2.51v-10.65h38v-34.74h11.97v34.74h37.97v10.65h-37.97v46.42ZM85.08,137.92v-15.81h-2.21v-3.18c-2.24.53-5.9-.69-7.54-.69-1.8,0-2.74.79-2.74.79,0,0-.92-.79-2.74-.79-1.63,0-5.29,1.23-7.53.69v3.18h-2.21v17.48h10.35v1.3h4.29v-1.3h9.31c-1.5,2.25-3.3,4.31-5.46,6.29-6.1,5.58-15.12,9.1-24.22,11.73v-43.84h36.09l.06,1.47c-.54,9.89-2.12,16.92-5.44,22.67ZM81.02,120.97v15.05s-.81.62-3.07-.02c-2.92-.83-4.22.07-4.22.07v-15.18s.34-.69,1.55-.65c2.25.07,4.44.96,5.73.73ZM71.45,120.89v15.18s-1.3-.91-4.22-.07c-2.25.64-3.06.02-3.06.02v-15.05c1.29.22,3.49-.66,5.73-.73,1.21-.04,1.55.65,1.55.65ZM.3,64.17v48.43c0,16.01,4,27.09,12.55,34.88,8.49,7.73,21.21,11.66,33.65,14.59,12.77-3.02,25.07-6.78,33.64-14.59,8.55-7.79,12.53-18.87,12.53-34.88v-48.43H.3Z"/><path d="M30.92,74.95v-3.18c-2.24.53-5.9-.69-7.53-.69-1.8,0-2.74.79-2.74.79,0,0-.93-.79-2.75-.79-1.63,0-5.29,1.23-7.54.69v3.18h-2.21v17.47h10.34v1.3h4.29v-1.3h10.34v-17.47h-2.21ZM19.5,88.9s-1.3-.91-4.22-.08c-2.25.64-3.07.02-3.07.02v-15.05c1.29.23,3.49-.66,5.74-.73,1.21-.04,1.55.65,1.55.65v15.18ZM29.07,88.84s-.82.62-3.07-.02c-2.92-.83-4.22.08-4.22.08v-15.18s.34-.69,1.55-.65c2.25.07,4.45.95,5.74.73v15.05Z"/><path d="M82.87,74.95v-3.18c-2.25.53-5.9-.69-7.54-.69-1.8,0-2.74.79-2.74.79,0,0-.92-.79-2.75-.79-1.63,0-5.29,1.23-7.54.69v3.18h-2.2v17.47h10.34v1.3h4.29v-1.3h10.34v-17.47h-2.2ZM71.16,88.9s-1.3-.91-4.21-.08c-2.26.64-3.07.02-3.07.02v-15.05c1.29.23,3.49-.66,5.74-.73,1.21-.04,1.55.65,1.55.65v15.18ZM80.74,88.84s-.82.62-3.07-.02c-2.92-.83-4.22.08-4.22.08v-15.18s.35-.69,1.55-.65c2.25.07,4.45.95,5.74.73v15.05Z"/><polygon class="cls-1" points="40.51 158.16 46.5 159.71 52.48 158.18 52.48 111.77 90.46 111.77 90.46 101.11 52.48 101.11 52.48 66.38 40.51 66.38 40.51 101.11 2.51 101.11 2.51 111.77 40.51 111.77 40.51 158.16"/><path class="cls-1" d="M23.02,47.82c-3.87-.33-7.68,1.05-7.44,1.28.59.59,2.19,5.24,4.21,6.14,6.12,1.72,12.05.02,11.46-.73-1.62-2.04-1.64-6.13-8.23-6.7Z"/><path class="cls-1" d="M52.86,48.15c-3.87-.33-7.68,1.04-7.44,1.28.6.59,2.2,5.24,4.21,6.14,6.12,1.72,12.06.02,11.46-.73-1.62-2.04-1.64-6.13-8.23-6.69Z"/><path class="cls-1" d="M79.36,55.35c6.12,1.72,10.15.12,10.73-1.12.66-1.41-.91-5.75-7.5-6.3-3.87-.33-7.68,1.04-7.44,1.28.59.59,2.19,5.24,4.21,6.14Z"/><path d="M133.94,150.14c0,1.67.22,2.59.81,3.29.54.67,1.51,1.11,2.51,1.11,1.05,0,2.08-.49,2.62-1.24.54-.73.7-1.51.7-3.19v-10.53h3.72v10.42c0,2.65-.57,4.48-1.78,5.83s-3.11,2.11-5.21,2.11-4.18-.81-5.45-2.24c-1.16-1.3-1.62-2.92-1.62-5.7v-10.42h3.7v10.56Z"/><path d="M165.99,157.59h-3.7v-18.01h3.65l7.53,11.23v-11.23h3.7v18.01h-3.62l-7.56-11.39v11.39Z"/><path d="M199.12,157.59h-3.7v-18.01h3.7v18.01Z"/><path d="M226.79,139.59h3.81l-5.67,18.01h-3.94l-5.45-18.01h3.81l3.65,12.07,3.81-12.07Z"/><path d="M250.44,147.04h6.32v3.02h-6.32v4.51h6.32v3.02h-10.02v-18.01h10.02v3.02h-6.32v4.43Z"/><path d="M278.06,157.59h-3.7v-18.01h5.56c4.45,0,6.86,1.97,6.86,5.67,0,2.84-1.48,4.72-4.26,5.43l4.97,6.91h-4.48l-4.94-7.15v7.15ZM279.74,148.28c2.11,0,3.29-1.03,3.29-2.84s-1.14-2.81-2.97-2.81h-2v5.64h1.67Z"/><path d="M307.17,152.33v.24c0,1.21,1.05,2.11,2.46,2.11s2.37-.84,2.37-1.92c0-.57-.27-1.08-.73-1.43-.46-.35-.78-.49-2.19-1-3.94-1.4-5.35-2.89-5.35-5.64,0-3.27,2.4-5.45,5.94-5.45s5.78,2.05,6.07,5.51h-3.72c-.14-1.51-.89-2.24-2.35-2.24-1.32,0-2.21.76-2.21,1.89,0,.73.38,1.3,1.11,1.7.49.27.78.4,2.11.89,1.97.73,2.97,1.24,3.75,2,.94.89,1.43,2.11,1.43,3.48,0,3.29-2.48,5.48-6.21,5.48s-6.1-2.16-6.07-5.62h3.59Z"/><path d="M336.9,157.59h-3.7v-18.01h3.7v18.01Z"/><path d="M361.33,157.59h-3.7v-14.98h-4.29v-3.02h12.26v3.02h-4.27v14.98Z"/><path d="M390.65,157.59h-3.7v-7.94l-6.02-10.07h4.4l3.48,6.24,3.43-6.24h4.32l-5.91,10.07v7.94Z"/><path d="M154.24,94.18c-.89-.68-1.7-1.17-2.58-1.56.81-.56,1.49-1.18,2.17-1.99,2.33-2.61,3.57-6.12,3.57-10.14,0-10.37-7.03-16.32-19.28-16.32h-17.22v58.41h17.22c7.25,0,11.07-.8,14.62-3.07,4.21-2.71,6.72-7.73,6.72-13.41,0-5.06-1.8-9.18-5.21-11.93ZM147.16,80.82c0,2.55-.99,4.82-2.72,6.21-1.58,1.25-3.87,1.77-7.91,1.77l-5.24.06v-15.53h3.94c4.68,0,6.84.29,8.56,1.15,2.05.96,3.37,3.45,3.37,6.33ZM131.28,97.96h6.91c7.72,0,10.86,2.24,10.86,7.73,0,2.98-1.04,5.08-3.1,6.24-2.11,1.24-4.15,1.57-9.49,1.57h-5.18v-15.55Z"/><path d="M198.37,97.27c5.69-3.02,8.83-8.48,8.83-15.37,0-11.09-7.67-17.72-20.52-17.72h-16.73v58.41h10.4v-20.35l18.92,20.35h13.5l-21.65-23.15c2.94-.39,5.12-1.05,7.25-2.17ZM180.35,73.59h6.33c6.51,0,9.96,3.04,9.96,8.8s-3.95,8.97-11.11,8.97h-5.18v-17.77Z"/><path d="M244.38,63.19c-16.49,0-28.92,13.1-28.92,30.48,0,7.34,2.12,13.9,6.14,18.96,5.44,6.86,13.9,10.95,22.61,10.95,6.83,0,13.46-2.49,18.67-7,6.4-5.43,9.92-13.47,9.92-22.66s-2.11-15.14-6.85-20.67c-5.61-6.4-13.47-10.06-21.57-10.06ZM257.41,107.75c-3.31,3.76-8.31,6.01-13.35,6.01-10.45,0-18.03-8.55-18.03-20.33s7.82-20.33,18.19-20.33c4.37,0,8.97,1.94,12.3,5.2,3.91,3.76,5.73,8.7,5.73,15.55,0,5.22-1.9,10.68-4.84,13.92Z"/><polygon points="328.48 101.96 317.8 64.18 308.77 64.32 297.89 101.88 286.21 64.18 275.37 64.18 293.75 122.59 302.34 122.45 313.17 84.12 324.11 122.59 332.65 122.59 350.88 64.18 340.02 64.32 328.48 101.96"/><polygon points="394.6 64.18 394.6 101.8 367.7 64.18 358.83 64.18 358.83 122.59 369.22 122.59 369.22 84.35 396.36 122.59 405 122.59 405 64.18 394.6 64.18"/><polygon class="cls-3" points="457.5 88.68 428.79 88.68 428.79 64.18 418.96 64.18 418.96 122.58 428.79 122.58 428.79 96.83 457.5 96.83 457.5 122.58 467.43 122.58 467.43 64.18 457.5 64.18 457.5 88.68"/><path class="cls-3" d="M493.85,82.39c-11.14,0-18.93,8.4-18.93,20.42s7.97,20.42,20.8,20.42c5.63,0,9.71-1.32,14.53-4.72l.2-.14-4.59-6.78-.21.17c-1.43,1.19-4.41,3.68-9.93,3.68-7.14,0-11.78-4.16-11.89-10.62h27.62l.02-.23s.19-2.18.19-3.94c0-10.93-7.16-18.27-17.81-18.27ZM503.38,97.71h-19.01c1.44-4.96,5.03-7.91,9.67-7.91,5.18,0,8.74,3.02,9.34,7.91Z"/><path class="cls-3" d="M537.82,82.48c-12.05,0-20.14,8.21-20.14,20.42s6.97,20.14,18.18,20.14c4.89,0,9.11-2.37,11.71-6.53v6.06h8.81v-33.62l-.32-.25c-5.15-4.13-11.28-6.23-18.24-6.23ZM536.79,115.08c-8.73,0-10.03-7.45-10.03-11.9,0-6.39,3.53-12.83,11.43-12.83,5.6,0,8.5,1.82,9.37,2.49v6.7c0,9.58-4.13,15.54-10.77,15.54Z"/><polygon class="cls-3" points="564.42 122.58 573.32 122.58 573.32 63.28 564.42 65.06 564.42 122.58"/><path class="cls-3" d="M601.5,115.52c-5.35,0-6.66-1.5-6.66-7.67v-17.31h9.84v-7.5h-9.84v-9.77l-8.99,1.98v7.8h-4.89l-2,7.5h6.89v17.13c0,11.07,3.71,15.38,13.23,15.38h4.49l1.8-7.71-.34.03c-1.44.11-2.57.16-3.54.16Z"/><path class="cls-3" d="M632.53,82.48c-4.77,0-9.27,2.2-11.71,5.67v-24.87l-8.9,1.78v57.52h8.9v-20.05c0-7.33,4.08-12.46,9.93-12.46s8.16,3.31,8.16,11.8v20.7h9.09v-20.8c0-12.99-5.06-19.3-15.47-19.3Z"/></svg>