<svg width="100" height="123" viewBox="0 0 100 123" fill="none" xmlns="http://www.w3.org/2000/svg">
<g clip-path="url(#clip0_3258_362345)">
<path d="M89.8789 117.898V118.944H91.1629V122.194H92.3625V118.944H93.6465V117.898H89.8811H89.8789ZM97.6339 117.898L96.601 119.557L95.5835 117.898H94.3129V122.194H95.4858V119.684L96.5743 121.386H96.6165L97.705 119.684V122.194H98.889V117.898H97.6339V117.898Z" fill="#46231E"/>
<path d="M79.2494 59.9031L89.9412 50.1155V22.2565L77.1413 8.70355H8.92773V30.678H18.5043V91.9873H8.92773V114.113H77.1413L91.2962 100.56V69.8418L79.2494 59.9031V59.9031ZM64.9611 92.245H42.307V70.8192H64.9611V92.245ZM64.9611 51.6594H42.307V30.2337H64.9611V51.6594Z" fill="#46231E"/>
<path d="M92.5138 59.561L98.6449 53.9475V18.7955L80.8935 0H0V38.4908H9.70988V84.1767H0V122.819H80.6358L100 104.278V65.7388L92.5138 59.5633V59.561ZM93.529 101.513L78.0389 116.343H6.6954V90.2013H16.1809V32.464H6.6954V6.47325H78.1033L92.1739 21.3702V51.0974L82.6506 59.8143L93.529 68.7889V101.513V101.513ZM44.5397 32.1286V49.7601H62.8421V32.1286H44.5397ZM58.9368 46.1902H48.4472V35.7006H58.9368V46.1902ZM44.5397 72.7141V90.3457H62.8421V72.7141H44.5397ZM58.9368 86.7758H48.4472V76.5084H58.9368V86.7758V86.7758Z" fill="#CD142D"/>
</g>
<defs>
<clipPath id="clip0_3258_362345">
<rect width="100" height="122.816" fill="white"/>
</clipPath>
</defs>
</svg>
