<?xml version="1.0" encoding="utf-8"?>
<svg xmlns="http://www.w3.org/2000/svg" viewBox="0 0 352 28">
  <defs>
    <style>.cls-1{fill:#d0b97c;}.cls-2{fill:#231f20;}.cls-3{fill:#fff;}</style>
  </defs>
  <title>CU-Anschutz-Medical-Campus</title>
  <g id="Layer_2">
    <g id="Anschutz">
      <polygon class="cls-1" points="20.95 7.05 20.95 3.84 17.12 0 3.85 0 0 3.84 0 17.1 3.85 20.93 8.06 20.93 8.06 24.16 11.94 28 23.14 28 27.03 24.16 27.03 13.89 29 13.89 29 7.05 20.95 7.05" />
      <polygon class="cls-2" points="16.96 0.4 20.56 4.01 20.56 7.46 28.61 7.46 28.61 13.5 26.63 13.5 26.63 23.99 22.98 27.6 12.1 27.6 8.46 23.99 8.46 20.53 4.01 20.53 0.4 16.93 0.4 4.01 4.01 0.4 16.96 0.4" />
      <polyline class="cls-3" points="4.42 19.54 9.46 19.54 9.46 23.58 12.51 26.6 22.57 26.6 25.63 23.58 25.63 12.5 27.61 12.5 27.61 8.45 21.54 8.45 21.54 22.56 13.5 22.56 13.5 19.54 16.54 19.54 19.56 16.52 19.56 12.5 15.51 12.5 15.51 15.5 13.5 15.5 13.5 8.45 7.45 8.45 7.45 12.5 9.46 12.5 9.46 15.5 5.43 15.5 5.43 5.4 15.51 5.4 15.51 8.45 19.56 8.45 19.56 4.42 16.54 1.39 4.42 1.39 1.39 4.42 1.39 16.52 4.42 19.54" />
      <polygon class="cls-1" points="13 19.04 16.34 19.04 19.06 16.31 19.06 13 16.01 13 16.01 16 13 16 13 8.95 7.95 8.95 7.95 12 9.96 12 9.96 16 4.93 16 4.93 4.91 16.01 4.91 16.01 7.95 19.06 7.95 19.06 4.62 16.34 1.89 4.63 1.89 1.89 4.62 1.89 16.31 4.63 19.04 9.96 19.04 9.96 23.37 12.72 26.11 22.36 26.11 25.13 23.37 25.13 12 27.11 12 27.11 8.95 22.04 8.95 22.04 23.06 13 23.06 13 19.04" />
      <path d="M259.74,6.78h3.52l5.83,15.58h-3.56l-1.18-3.47h-5.83l-1.22,3.47h-3.47Zm-.32,9.53h4l-1.94-5.68h-.05Z" />
      <path d="M270.31,11.08h2.95v1.56h.06a4,4,0,0,1,3.45-1.88c3.3,0,4.13,1.86,4.13,4.65v7h-3.11V16c0-1.86-.54-2.77-2-2.77-1.68,0-2.4.93-2.4,3.23v5.91h-3.1Z" />
      <path d="M285.68,18.69c0,1.36,1.16,1.91,2.37,1.91.9,0,2-.36,2-1.45,0-.94-1.29-1.26-3.52-1.74-1.78-.4-3.57-1-3.57-3,0-2.88,2.51-3.62,4.91-3.62s4.73.83,5,3.6h-2.95c-.08-1.2-1-1.51-2.12-1.51-.69,0-1.72.13-1.72,1.05,0,1.11,1.75,1.27,3.52,1.68s3.57,1.07,3.57,3.16c0,3-2.57,3.93-5.15,3.93s-5.17-1-5.3-4Z" />
      <path d="M302.6,15.05a2.11,2.11,0,0,0-2.27-1.94h0c-2,0-2.64,2-2.64,3.66s.63,3.56,2.58,3.56A2.38,2.38,0,0,0,302.71,18h3c-.39,3-2.46,4.63-5.43,4.63a5.48,5.48,0,0,1-5.7-5.79c0-3.51,2.09-6.11,5.76-6.11,2.67,0,5.11,1.4,5.3,4.28Z" />
      <path d="M307.54,6.78h3.1v5.86h.07A4,4,0,0,1,314,10.76c3.29,0,4.13,1.86,4.13,4.65v7H315V16c0-1.86-.55-2.77-2-2.77-1.68,0-2.4.93-2.4,3.23v5.91h-3.08Z" />
      <path d="M331.12,22.36h-2.95V20.79h-.06a4,4,0,0,1-3.47,1.88c-3.3,0-4.13-1.85-4.13-4.65V11.08h3.09v6.37c0,1.86.54,2.77,2,2.77,1.68,0,2.4-.93,2.4-3.23V11.08h3.12Z" />
      <path d="M337.44,11.08h2.26v2.06h-2.26v5.6c0,1.05.26,1.31,1.3,1.31a5.12,5.12,0,0,0,1-.09v2.42a10.87,10.87,0,0,1-1.81.11c-1.89,0-3.55-.43-3.55-2.68V13.14h-1.88V11.08h1.88V7.7h3.1Z" />
      <path d="M340.8,20l5.87-6.6h-5.43V11.08h9.53v2.34L344.9,20h6.29v2.34H340.8Z" />
      <path d="M39.43,6.32h1.49V16c0,3.65,1.71,5,4.59,5s4.64-1.39,4.63-5V6.32h1.49V16.37c0,3.2-1.74,6-6.12,6s-6.08-2.72-6.08-6Z" />
      <path d="M54.36,10.68h1.38v2h0a3.87,3.87,0,0,1,3.63-2.29c3.2,0,4.16,1.67,4.16,4.39V22H62.18v-7.1c0-2-.63-3.43-2.88-3.43s-3.52,1.67-3.56,3.89V22H54.36Z" />
      <path d="M66.21,10.68H67.6V22H66.21Zm0-4.36H67.6V8.54H66.21Z" />
      <polygon points="68.98 10.68 70.52 10.68 74.08 20.64 74.12 20.64 77.64 10.68 79.07 10.68 74.83 22.02 73.36 22.02 68.98 10.68" />
      <path d="M88.59,15.56c-.06-2.09-1.36-4.05-3.61-4.05s-3.51,2-3.73,4.05Zm-7.34,1.16c0,2,1.08,4.47,3.73,4.47a3.46,3.46,0,0,0,3.57-2.91h1.36c-.59,2.58-2.09,4.08-5,4.08-3.6,0-5.12-2.78-5.12-6,0-3,1.52-6,5.12-6s5.1,3.2,5,6.4Z" />
      <path d="M91.85,10.68h1.26v2.65h0a4.18,4.18,0,0,1,4.29-2.8v1.38a3.91,3.91,0,0,0-4.22,3.57,4,4,0,0,0,0,.49V22H91.79Z" />
      <path d="M105.56,14c-.06-1.72-1.38-2.49-3-2.49-1.24,0-2.69.49-2.69,2,0,1.23,1.41,1.67,2.35,1.91l1.85.42c1.6.24,3.2,1.16,3.2,3.14,0,2.46-2.44,3.42-4.55,3.42-2.64,0-4.44-1.24-4.67-4h1.41c.1,1.87,1.49,2.84,3.34,2.84,1.3,0,3.1-.58,3.1-2.16,0-1.32-1.23-1.76-2.49-2.07l-1.77-.4c-1.81-.48-3.2-1.09-3.2-3,0-2.31,2.26-3.2,4.26-3.2,2.26,0,4.07,1.19,4.16,3.66Z" />
      <path d="M109.37,10.68h1.39V22h-1.39Zm0-4.36h1.39V8.54h-1.39Z" />
      <path d="M115.62,10.68h2.29v1.16H115.6v7.65c0,.91.13,1.43,1.12,1.5a9.5,9.5,0,0,0,1.19-.07v1.19c-.41,0-.8.05-1.23.05-1.84,0-2.48-.62-2.46-2.56V11.84h-2V10.68h2V7.27h1.38Z" />
      <path d="M118.65,10.68h1.48l3.74,9.67,3.49-9.67h1.38l-4.91,13.08c-.8,1.91-1.26,2.46-3,2.46a3.72,3.72,0,0,1-1-.11V25a5.88,5.88,0,0,0,.94.11c1.23,0,1.52-.73,2-1.78l.49-1.3Z" />
      <path d="M137,16.35c0,2.4,1.32,4.84,4,4.84s4-2.4,4-4.84-1.32-4.84-4-4.84-4,2.4-4,4.84m9.34,0c0,3.25-1.89,6-5.37,6s-5.36-2.76-5.36-6,1.89-6,5.36-6,5.37,2.75,5.37,6" />
      <path d="M152.83,11.84h-2.25V22H149.2V11.84h-1.94V10.68h1.94v-1c0-1.95.52-3.32,2.75-3.32a7.55,7.55,0,0,1,1.16.09V7.6a4.88,4.88,0,0,0-1-.11c-1.54,0-1.5,1-1.52,2.2v1h2.25Z" />
      <path d="M172,11.07a4.8,4.8,0,0,0-4.8-3.81c-4.16,0-5.92,3.48-5.92,6.91s1.76,6.91,5.92,6.91c2.9,0,4.75-2.24,5-5h1.51c-.43,3.85-2.87,6.32-6.54,6.32-4.95,0-7.41-3.9-7.41-8.19S162.25,6,167.2,6c3,0,5.91,1.78,6.31,5.08Z" />
      <path d="M176.55,16.35c0,2.4,1.32,4.84,4,4.84s4-2.4,4-4.84-1.32-4.84-4-4.84-4,2.4-4,4.84m9.34,0c0,3.25-1.88,6-5.36,6s-5.36-2.76-5.36-6,1.89-6,5.36-6,5.36,2.75,5.36,6" />
      <rect x="187.99" y="6.32" width="1.38" height="15.7" />
      <path d="M192.84,16.35c0,2.4,1.32,4.84,4,4.84s4-2.4,4-4.84-1.32-4.84-4-4.84-4,2.4-4,4.84m9.35,0c0,3.25-1.89,6-5.36,6s-5.34-2.72-5.34-6,1.89-6,5.37-6,5.37,2.75,5.37,6" />
      <path d="M204.29,10.68h1.28v2.65h0a4.18,4.18,0,0,1,4.28-2.8v1.38a3.89,3.89,0,0,0-4.21,3.57,2.68,2.68,0,0,0,0,.49V22h-1.38Z" />
      <path d="M218.44,15.82h0c-.18.33-.8.44-1.17.5-2.35.43-5.28.4-5.28,2.62a2.4,2.4,0,0,0,2.53,2.25c2.11,0,4-1.35,4-3.57Zm-7.38-1.67c.12-2.66,2-3.81,4.59-3.81,2,0,4.17.63,4.17,3.66v6a.75.75,0,0,0,.64.84h.16a1.12,1.12,0,0,0,.44-.09v1.16a3.32,3.32,0,0,1-.89.09c-1.41,0-1.6-.8-1.6-2h0a4.34,4.34,0,0,1-4.14,2.32c-2.09,0-3.81-1-3.81-3.33,0-3.2,3.11-3.3,6.1-3.65,1.14-.13,1.78-.29,1.78-1.53,0-1.88-1.34-2.34-3-2.34s-3,.8-3,2.64Z" />
      <path d="M227.21,21.19c3,0,4-2.49,4-4.84s-1-4.84-4-4.84c-2.64,0-3.71,2.49-3.71,4.84s1.07,4.84,3.71,4.84m5.37.8h-1.27V19.87h-.05a4.49,4.49,0,0,1-4,2.49c-3.44,0-5.1-2.8-5.1-6s1.66-6,5.1-6a4.05,4.05,0,0,1,3.94,2.49h0V6.32h1.38Z" />
      <path d="M236,16.35c0,2.4,1.32,4.84,4,4.84s4-2.4,4-4.84-1.32-4.84-4-4.84-4,2.4-4,4.84m9.34,0c0,3.25-1.89,6-5.37,6s-5.33-2.72-5.33-6,1.89-6,5.36-6,5.37,2.75,5.37,6" />
    </g>
  </g>
</svg>
